<svg width="156" height="12" fill="none" xmlns="http://www.w3.org/2000/svg"><path d="M67.326 1.8a8.854 8.854 0 0 1-1.16.379 9.435 9.435 0 0 1-1.338.296l-.178-.817c.58-.13 1.16-.332 1.741-.628a7.058 7.058 0 0 0 1.492-.97h.012l.829.177v9.935l2.273.142v.746h-6.015v-.746l2.333-.142V1.8h.011ZM49.517 9.52c-.699-1.065-1.042-2.391-1.042-3.978 0-1.09.2-2.049.603-2.89.403-.84.948-1.492 1.647-1.953A4.03 4.03 0 0 1 53.01 0c1.516 0 2.605.497 3.256 1.48.652.983.983 2.297.983 3.943 0 1.078-.19 2.05-.58 2.925-.39.865-.924 1.552-1.599 2.037a3.762 3.762 0 0 1-2.285.734c-1.492 0-2.581-.533-3.268-1.598Zm5.506-.45c.462-.828.699-2 .699-3.493 0-3.185-.936-4.784-2.819-4.784-.994 0-1.728.403-2.202 1.196-.474.806-.71 1.907-.71 3.34 0 1.409.224 2.593.686 3.552.462.96 1.184 1.433 2.167 1.433.983 0 1.717-.414 2.18-1.243ZM18.337 1.8a8.862 8.862 0 0 1-1.16.379 9.435 9.435 0 0 1-1.338.296l-.178-.817c.58-.13 1.16-.332 1.74-.628a7.062 7.062 0 0 0 1.493-.97h.012l.829.177v9.935l2.273.142v.746h-6.015v-.746l2.333-.142V1.8h.011ZM4.14 1.8a8.86 8.86 0 0 1-1.161.379 9.433 9.433 0 0 1-1.338.296l-.178-.817c.58-.13 1.16-.332 1.74-.628A7.06 7.06 0 0 0 4.697.06h.011l.83.177v9.935l2.273.142v.746H1.794v-.746l2.333-.142V1.8h.012ZM98.197 1.8a8.86 8.86 0 0 1-1.16.379 9.435 9.435 0 0 1-1.339.296l-.177-.817c.58-.13 1.16-.332 1.74-.628a7.058 7.058 0 0 0 1.492-.97h.012l.829.177v9.935l2.274.142v.746h-6.016v-.746l2.333-.142V1.8h.012ZM151.532 1.8a8.885 8.885 0 0 1-1.161.379 9.443 9.443 0 0 1-1.338.296l-.178-.817a7.33 7.33 0 0 0 1.741-.628 7.053 7.053 0 0 0 1.492-.97h.012l.829.177v9.935l2.274.142v.746h-6.016v-.746l2.333-.142V1.8h.012ZM109.423 9.52c-.699-1.065-1.042-2.391-1.042-3.978 0-1.09.201-2.049.604-2.89.402-.84.947-1.492 1.646-1.953A4.03 4.03 0 0 1 112.916 0c1.516 0 2.605.497 3.257 1.48.651.983.982 2.297.982 3.943 0 1.078-.189 2.05-.58 2.925-.391.865-.923 1.552-1.598 2.037-.675.498-1.445.734-2.286.734-1.48 0-2.569-.533-3.268-1.598Zm5.506-.45c.462-.828.699-2 .699-3.493 0-3.185-.936-4.784-2.818-4.784-.995 0-1.729.403-2.203 1.196-.474.806-.71 1.907-.71 3.34 0 1.409.225 2.593.686 3.552.462.96 1.185 1.433 2.167 1.433.983 0 1.717-.414 2.179-1.243Z" fill="#3BFFFF"/></svg>