<svg width="61" height="60" fill="none" xmlns="http://www.w3.org/2000/svg"><g stroke="#000" stroke-width="5" stroke-linecap="round" stroke-linejoin="round"><path d="M30.5 12.5a7.5 7.5 0 1 0-14.992.313 10.002 10.002 0 0 0-6.315 14.425 10 10 0 0 0 1.39 16.47A10 10 0 1 0 30.5 45V12.5Z"/><path d="M23 32.5a11.25 11.25 0 0 0 7.5-10M15.508 12.813a7.5 7.5 0 0 0 .995 3.437M9.192 27.24a9.994 9.994 0 0 1 1.463-.99M15.5 45a10 10 0 0 1-4.917-1.29M30.5 32.5h10M30.5 45h15a5 5 0 0 1 5 5v2.5M30.5 20h20M40.5 20v-7.5a5 5 0 0 1 5-5M40.5 33.75a1.25 1.25 0 1 0 0-2.5 1.25 1.25 0 0 0 0 2.5Z"/><path d="M45.5 8.75a1.25 1.25 0 1 0 0-2.5 1.25 1.25 0 0 0 0 2.5ZM50.5 53.75a1.25 1.25 0 1 0 0-2.5 1.25 1.25 0 0 0 0 2.5ZM50.5 21.25a1.25 1.25 0 1 0 0-2.5 1.25 1.25 0 0 0 0 2.5Z"/></g></svg>