<svg xmlns="http://www.w3.org/2000/svg" width="99" height="25" fill="none"><path d="M98.5 1 81.426 3.914l11.06 13.33L98.5 1ZM.79 1.887a46.816 46.816 0 0 0 1.931 2.455l2.297-1.93A43.815 43.815 0 0 1 3.21.112L.79 1.887ZM7.021 8.88a58.933 58.933 0 0 0 4.754 4.024l1.815-2.388a55.935 55.935 0 0 1-4.511-3.82L7.02 8.881Zm9.907 7.534a59.095 59.095 0 0 0 5.486 2.95l1.28-2.714a56.084 56.084 0 0 1-5.21-2.8l-1.556 2.564Zm11.26 5.299a56.583 56.583 0 0 0 5.998 1.707l.66-2.927a53.619 53.619 0 0 1-5.68-1.616l-.979 2.836Zm12.151 2.741c2.02.226 4.096.347 6.227.352l.006-3a54.152 54.152 0 0 1-5.9-.333l-.333 2.981Zm12.439.036a62.861 62.861 0 0 0 6.147-.947l-.601-2.939a59.875 59.875 0 0 1-5.854.902l.308 2.984Zm12.172-2.473a74.366 74.366 0 0 0 5.843-2.037l-1.103-2.79c-1.9.75-3.77 1.4-5.608 1.955l.868 2.872Zm11.503-4.529a91.644 91.644 0 0 0 5.48-2.894l-1.49-2.605a88.691 88.691 0 0 1-5.299 2.8l1.31 2.7Zm10.717-6.104a114.26 114.26 0 0 0 5.049-3.503l-1.775-2.419a111.202 111.202 0 0 1-4.916 3.411l1.642 2.511Z" fill="#97770F"/></svg>