<svg width="523" height="24" fill="none" xmlns="http://www.w3.org/2000/svg"><g opacity=".4" fill="#0D2A40"><path d="M346.653 4.481c-.497.214-1.255.474-2.321.758-1.066.308-1.966.498-2.676.592l-.355-1.634c1.16-.26 2.321-.663 3.481-1.255A14.106 14.106 0 0 0 347.766 1h.024l1.658.355v19.87l4.547.285v1.492h-12.031V21.51l4.666-.285V4.482h.023ZM311.033 19.923c-1.397-2.131-2.084-4.784-2.084-7.957 0-2.18.403-4.098 1.208-5.78.805-1.68 1.895-2.983 3.292-3.907A8.062 8.062 0 0 1 318.02.882c3.031 0 5.21.995 6.513 2.96 1.302 1.966 1.966 4.595 1.966 7.887 0 2.155-.379 4.097-1.161 5.85-.782 1.728-1.847 3.102-3.197 4.073-1.35.995-2.89 1.468-4.571 1.468-2.984 0-5.163-1.065-6.537-3.197Zm11.013-.9c.924-1.658 1.397-4.002 1.397-6.986 0-6.371-1.871-9.568-5.636-9.568-1.99 0-3.458.805-4.405 2.392-.948 1.61-1.421 3.813-1.421 6.678 0 2.819.45 5.187 1.373 7.105.924 1.919 2.369 2.866 4.334 2.866 1.966 0 3.434-.829 4.358-2.487ZM192.712 4.481c-.498.214-1.255.474-2.321.758-1.066.308-1.966.498-2.676.592l-.356-1.634a14.692 14.692 0 0 0 3.482-1.255A14.132 14.132 0 0 0 193.825 1h.024l1.657.355v19.87l4.548.285v1.492h-12.032V21.51l4.666-.285V4.482h.024ZM248.676 4.481c-.498.214-1.255.474-2.321.758-1.066.308-1.966.498-2.676.592l-.356-1.634a14.692 14.692 0 0 0 3.482-1.255A14.132 14.132 0 0 0 249.789 1h.024l1.657.355v19.87l4.548.285v1.492h-12.032V21.51l4.666-.285V4.482h.024ZM220.278 4.481c-.497.214-1.255.474-2.321.758-1.065.308-1.965.498-2.676.592l-.355-1.634c1.16-.26 2.321-.663 3.481-1.255A14.08 14.08 0 0 0 221.391 1h.024l1.658.355v19.87l4.547.285v1.492h-12.031V21.51l4.666-.285V4.482h.023ZM157.069 19.923c-1.398-2.131-2.085-4.784-2.085-7.957 0-2.18.403-4.098 1.208-5.78.805-1.68 1.895-2.983 3.292-3.907a8.062 8.062 0 0 1 4.571-1.397c3.032 0 5.21.995 6.513 2.96 1.303 1.966 1.966 4.595 1.966 7.887 0 2.155-.379 4.097-1.161 5.85-.781 1.728-1.847 3.102-3.197 4.073-1.35.995-2.889 1.468-4.571 1.468-2.96 0-5.139-1.065-6.536-3.197Zm11.012-.9c.924-1.658 1.398-4.002 1.398-6.986 0-6.371-1.871-9.568-5.637-9.568-1.989 0-3.458.805-4.405 2.392-.947 1.61-1.421 3.813-1.421 6.678 0 2.819.45 5.187 1.374 7.105.923 1.919 2.368 2.866 4.334 2.866 1.989 0 3.434-.829 4.357-2.487ZM5.352 4.481c-.497.214-1.255.474-2.32.758-1.066.308-1.966.498-2.677.592L0 4.197c1.16-.26 2.321-.663 3.482-1.255A14.119 14.119 0 0 0 6.466 1h.023l1.658.355v19.87l4.547.285v1.492H.664V21.51l4.665-.285V4.482h.023ZM62.807 4.481c-.497.214-1.255.474-2.32.758-1.066.308-1.966.498-2.677.592l-.355-1.634c1.16-.26 2.321-.663 3.482-1.255A14.117 14.117 0 0 0 63.92 1h.023l1.658.355v19.87l4.547.285v1.492H58.12V21.51l4.665-.285V4.482h.023ZM90.115 4.481c-.497.214-1.255.474-2.32.758-1.067.308-1.967.498-2.677.592l-.355-1.634c1.16-.26 2.32-.663 3.481-1.255A14.117 14.117 0 0 0 91.228 1h.024l1.658.355v19.87l4.547.285v1.492H85.426V21.51l4.665-.285V4.482h.024ZM27.78 19.923c-1.398-2.131-2.085-4.784-2.085-7.957 0-2.18.403-4.098 1.208-5.78.805-1.68 1.895-2.983 3.292-3.907a8.061 8.061 0 0 1 4.57-1.397c3.032 0 5.211.995 6.514 2.96 1.302 1.966 1.966 4.595 1.966 7.887 0 2.155-.38 4.097-1.16 5.85-.782 1.728-1.848 3.102-3.198 4.073-1.35.995-2.89 1.468-4.571 1.468-2.96 0-5.14-1.065-6.537-3.197Zm11.012-.9c.924-1.658 1.398-4.002 1.398-6.986 0-6.371-1.871-9.568-5.637-9.568-1.99 0-3.458.805-4.405 2.392-.947 1.61-1.421 3.813-1.421 6.678 0 2.819.45 5.187 1.373 7.105.924 1.919 2.369 2.866 4.334 2.866 1.99 0 3.434-.829 4.358-2.487ZM408.394 4.481c-.497.214-1.255.474-2.32.758-1.066.308-1.966.498-2.677.592l-.355-1.634c1.16-.26 2.321-.663 3.482-1.255A14.132 14.132 0 0 0 409.508 1h.023l1.658.355v19.87l4.547.285v1.492h-12.031V21.51l4.666-.285V4.482h.023ZM515.063 4.481c-.497.214-1.255.474-2.321.758-1.065.308-1.965.498-2.676.592l-.355-1.634c1.16-.26 2.321-.663 3.481-1.255A14.08 14.08 0 0 0 516.176 1h.024l1.658.355v19.87l4.547.285v1.492h-12.031V21.51l4.666-.285V4.482h.023ZM430.847 19.923c-1.397-2.131-2.084-4.784-2.084-7.957 0-2.18.402-4.098 1.208-5.78.805-1.68 1.894-2.983 3.291-3.907a8.062 8.062 0 0 1 4.571-1.397c3.032 0 5.211.995 6.513 2.96 1.303 1.966 1.966 4.595 1.966 7.887 0 2.155-.379 4.097-1.161 5.85-.781 1.728-1.847 3.102-3.197 4.073-1.35.995-2.889 1.468-4.571 1.468-2.96 0-5.139-1.065-6.536-3.197Zm11.012-.9c.924-1.658 1.398-4.002 1.398-6.986 0-6.371-1.871-9.568-5.637-9.568-1.989 0-3.458.805-4.405 2.392-.947 1.61-1.421 3.813-1.421 6.678 0 2.819.45 5.187 1.374 7.105.923 1.919 2.368 2.866 4.334 2.866 1.966 0 3.434-.829 4.357-2.487Z"/></g></svg>